<svg xmlns="http://www.w3.org/2000/svg">
<!--
	This is an invisible SVG Sprite. use the icons contained in it by adding an HTML node like this:
	<svg class="icon">
		<use href="#icon"></use>
	</svg>
	
	Info, good, but outdated: https://css-tricks.com/svg-use-with-external-reference-take-2/
-->

<symbol viewBox="0 0 16 16" id="cross">
	<title>Close or Error</title>
	<g style="fill: currentColor">
		<rect x="3.05029" y="1.63599" width="16" height="2" rx="1" transform="rotate(45 3.05029 1.63599)" />
		<rect x="1.63599" y="12.9497" width="16" height="2" rx="1" transform="rotate(-45 1.63599 12.9497)" />
	</g>
</symbol>

<symbol viewBox="0 0 16 16" id="ext">
	<title>External Link</title>
	<g style="fill: currentColor">
		<path fill-rule="evenodd" clip-rule="evenodd" d="M5 1H6V2.61538H5.11538C3.73467 2.61538 2.61538 3.73467 2.61538 5.11539V10.8846C2.61538 12.2653 3.73467 13.3846 5.11539 13.3846H10.8846C12.2653 13.3846 13.3846 12.2653 13.3846 10.8846V10H15V11C15 13.2091 13.2091 15 11 15H5C2.79086 15 1 13.2091 1 11V5C1 2.79086 2.79086 1 5 1ZM9 1V2.61538H12.3846L8.5 6.5L9.5 7.5L13.3846 3.61539V7H15V2C15 1.44772 14.5523 1 14 1H9Z" />
	</g>
</symbol>

<symbol viewBox="0 0 16 16" id="menu">
	<title>Menu</title>
	<g style="fill: currentColor">
		<rect width="16" height="2" rx="1" />
		<rect y="7" width="16" height="2" rx="1" />
		<rect y="14" width="16" height="2" rx="1" />
	</g>
</symbol>

<symbol viewBox="0 0 16 16" id="menu">
	<title>Menu</title>
	<g style="fill: currentColor">
		<rect width="16" height="2" rx="1" />
		<rect y="7" width="16" height="2" rx="1" />
		<rect y="14" width="16" height="2" rx="1" />
	</g>
</symbol>

<symbol viewBox="0 0 16 16" id="youtube">
	<path d="M15.6657 4.12402C15.4817 3.43116 14.9395 2.88548 14.2511 2.70028C13.0033 2.36377 8 2.36377 8 2.36377C8 2.36377 2.99666 2.36377 1.7489 2.70028C1.0605 2.88548 0.518345 3.43116 0.334336 4.12402C0 5.37989 0 8.00013 0 8.00013C0 8.00013 0 10.6204 0.334336 11.8763C0.518345 12.5691 1.0605 13.1148 1.7489 13.3C2.99666 13.6365 8 13.6365 8 13.6365C8 13.6365 13.0033 13.6365 14.2511 13.3C14.9395 13.1148 15.4817 12.5691 15.6657 11.8763C16 10.6204 16 8.00013 16 8.00013C16 8.00013 16 5.37989 15.6657 4.12402Z" fill="#FF0000" style="fill:#FF0000;fill:color(display-p3 1.0000 0.0000 0.0000);fill-opacity:1;"/>
	<path d="M6.36377 10.3791L10.5456 8.00015L6.36377 5.62109V10.3791Z" fill="white" style="fill:white;fill:white;fill-opacity:1;"/>
</symbol>

</svg>