<svg xmlns="http://www.w3.org/2000/svg">
<!--
	This is an invisible SVG Sprite. use the icons contained in it by adding an HTML node like this:
	<svg class="icon">
		<use href="#icon"></use>
	</svg>
	
	Info, good, but outdated: https://css-tricks.com/svg-use-with-external-reference-take-2/
-->

<symbol viewBox="0 0 16 16" id="cross">
	<title>Close or Error</title>
	<g style="fill: currentColor">
		<rect x="3.05029" y="1.63599" width="16" height="2" rx="1" transform="rotate(45 3.05029 1.63599)" />
		<rect x="1.63599" y="12.9497" width="16" height="2" rx="1" transform="rotate(-45 1.63599 12.9497)" />
	</g>
</symbol>

<symbol viewBox="0 0 16 16" id="ext">
	<title>External Link</title>
	<g style="fill: currentColor">
		<path fill-rule="evenodd" clip-rule="evenodd" d="M5 1H6V2.61538H5.11538C3.73467 2.61538 2.61538 3.73467 2.61538 5.11539V10.8846C2.61538 12.2653 3.73467 13.3846 5.11539 13.3846H10.8846C12.2653 13.3846 13.3846 12.2653 13.3846 10.8846V10H15V11C15 13.2091 13.2091 15 11 15H5C2.79086 15 1 13.2091 1 11V5C1 2.79086 2.79086 1 5 1ZM9 1V2.61538H12.3846L8.5 6.5L9.5 7.5L13.3846 3.61539V7H15V2C15 1.44772 14.5523 1 14 1H9Z" />
	</g>
</symbol>

<symbol viewBox="0 0 16 16" id="menu">
	<title>Menu</title>
	<g style="fill: currentColor">
		<rect width="16" height="2" rx="1" />
		<rect y="7" width="16" height="2" rx="1" />
		<rect y="14" width="16" height="2" rx="1" />
	</g>
</symbol>

<symbol viewBox="0 0 16 16" id="menu">
	<title>Menu</title>
	<g style="fill: currentColor">
		<rect width="16" height="2" rx="1" />
		<rect y="7" width="16" height="2" rx="1" />
		<rect y="14" width="16" height="2" rx="1" />
	</g>
</symbol>

<symbol viewBox="0 0 16 16" id="youtube">
	<path d="M15.6657 4.76025C15.4817 4.06739 14.9395 3.52171 14.2511 3.33651C13.0033 3 8 3 8 3C8 3 2.99666 3 1.7489 3.33651C1.0605 3.52171 0.518345 4.06739 0.334336 4.76025C0 6.01612 0 8.63636 0 8.63636C0 8.63636 0 11.2566 0.334336 12.5125C0.518345 13.2053 1.0605 13.751 1.7489 13.9362C2.99666 14.2727 8 14.2727 8 14.2727C8 14.2727 13.0033 14.2727 14.2511 13.9362C14.9395 13.751 15.4817 13.2053 15.6657 12.5125C16 11.2566 16 8.63636 16 8.63636C16 8.63636 16 6.01612 15.6657 4.76025Z" fill="#FF0000" style="fill:#FF0000;fill:color(display-p3 1.0000 0.0000 0.0000);fill-opacity:1;"/>
	<path d="M6.36377 11.0153L10.5456 8.63638L6.36377 6.25732V11.0153Z" fill="white" style="fill:white;fill:white;fill-opacity:1;"/>
</symbol>

</svg>